<svg width="100" height="46" viewBox="0 0 100 46" fill="none" xmlns="http://www.w3.org/2000/svg">
<path fill-rule="evenodd" clip-rule="evenodd" d="M35.2935 3.85136L22.8732 45.9892H22.8305C22.8303 45.9928 22.8301 45.9964 22.83 46H22.7651L22.5617 45.9892H21.749L21.7616 45.9466L21.749 45.9459C22.6786 27.4139 14.0417 24.2766 10.2908 23.7789C4.85353 23.0757 1.10258 24.666 1.07015 24.6877L0 25.1529L7.10193 1.38476H22.8516V2.4666H7.91266L1.66468 23.3354C3.21046 22.8702 6.34526 22.1886 10.4205 22.7187C14.1885 23.2014 22.5145 26.1052 22.8876 42.1261L35.3043 0L48.0272 43.9769L60.988 0L73.711 43.9769L86.6717 0L100 45.9892H98.8542L86.6609 3.85136L74.2406 45.9892H73.1164L73.1488 45.9026L60.9772 3.85136L48.5569 45.9892H47.4327L47.4651 45.9026L35.2935 3.85136Z" fill="black"/>
</svg>
