<?xml version="1.0" encoding="utf-8"?>
<!-- Generator: Adobe Illustrator 19.2.1, SVG Export Plug-In . SVG Version: 6.00 Build 0)  -->
<svg version="1.1" id="Layer_1" xmlns="http://www.w3.org/2000/svg" xmlns:xlink="http://www.w3.org/1999/xlink" x="0px" y="0px"
	 viewBox="0 0 216 257" style="enable-background:new 0 0 216 257;" xml:space="preserve">
<metadata><?xpacket begin="﻿" id="W5M0MpCehiHzreSzNTczkc9d"?>
<x:xmpmeta xmlns:x="adobe:ns:meta/" x:xmptk="Adobe XMP Core 5.6-c111 79.158366, 2015/09/25-01:12:00        ">
   <rdf:RDF xmlns:rdf="http://www.w3.org/1999/02/22-rdf-syntax-ns#">
      <rdf:Description rdf:about=""/>
   </rdf:RDF>
</x:xmpmeta>
                                                                                                    
                                                                                                    
                                                                                                    
                                                                                                    
                                                                                                    
                                                                                                    
                                                                                                    
                                                                                                    
                                                                                                    
                                                                                                    
                                                                                                    
                                                                                                    
                                                                                                    
                                                                                                    
                                                                                                    
                                                                                                    
                                                                                                    
                                                                                                    
                                                                                                    
                                                                                                    
                           
<?xpacket end="w"?></metadata>
<style type="text/css">
	.st0{fill:#FFFFFF;}
	.st1{fill:#8C8C8C;}
	.st2{fill:#EEEEEE;}
	.st3{fill:#EB2026;}
	.st4{fill:#CCCCCC;}
</style>
<g>
	<g>
		<polygon class="st0" points="17.8,0.7 17.8,256.3 215.3,256.3 215.3,59.9 156.1,0.7 		"/>
		<path class="st1" d="M216,257H17.1V0h139.2L216,59.6V257z M18.5,255.7h196.2V60.2L155.8,1.3H18.5V255.7z"/>
	</g>
	<polygon class="st2" points="156.1,8.7 25.8,8.7 25.8,248.3 207.3,248.3 207.3,59.9 156.1,59.9 	"/>
	<polygon class="st1" points="215.3,60.6 155.4,60.6 155.4,0.7 156.8,0.7 156.8,59.2 215.3,59.2 	"/>
	<g>
		<rect y="29.8" class="st3" width="99.3" height="60.2"/>
		<g>
			<path class="st0" d="M23.9,62.6h-3v11.6H17V45.7h7.6c6,0,9.7,2.9,9.7,8.2C34.3,59.7,30.1,62.6,23.9,62.6z M24.4,49.1h-3.5v10.1
				h3.2c3.9,0,6.2-1.6,6.2-5.2C30.3,50.7,28.3,49.1,24.4,49.1z"/>
			<path class="st0" d="M46.8,74.2h-8.1V45.7h8.3c9.9,0,15,5.9,15,14.2C61.9,68.3,56.6,74.2,46.8,74.2z M47.1,49.2h-4.5v21.5h4.4
				c6.9,0,11-3.5,11-10.7C57.9,52.8,53.6,49.2,47.1,49.2z"/>
			<path class="st0" d="M71.3,49.2v8.7h8.6l0.6,3.6h-9.2v12.7h-3.9V45.7h14.8v3.6H71.3z"/>
		</g>
	</g>
	<g>
		<rect x="112.8" y="114.4" class="st4" width="67.4" height="4"/>
		<rect x="112.8" y="132" class="st4" width="67.4" height="4"/>
		<rect x="112.8" y="149.6" class="st4" width="67.4" height="4"/>
		<rect x="112.2" y="167.1" class="st4" width="68.1" height="4"/>
		<rect x="52.9" y="184.7" class="st4" width="127.4" height="4"/>
		<rect x="52.9" y="202.3" class="st4" width="127.4" height="4"/>
		<rect x="52.9" y="219.8" class="st4" width="127.4" height="4"/>
		<rect x="52.9" y="114.4" class="st4" width="46.4" height="56.7"/>
	</g>
</g>
</svg>
