<?xml version="1.0" encoding="utf-8"?>
<!-- Generator: Adobe Illustrator 19.2.1, SVG Export Plug-In . SVG Version: 6.00 Build 0)  -->
<svg version="1.1" xmlns="http://www.w3.org/2000/svg" xmlns:xlink="http://www.w3.org/1999/xlink" x="0px" y="0px"
	 viewBox="0 0 500 310.2" style="enable-background:new 0 0 500 310.2;" xml:space="preserve">
<metadata><?xpacket begin="﻿" id="W5M0MpCehiHzreSzNTczkc9d"?>
<x:xmpmeta xmlns:x="adobe:ns:meta/" x:xmptk="Adobe XMP Core 5.6-c111 79.158366, 2015/09/25-01:12:00        ">
   <rdf:RDF xmlns:rdf="http://www.w3.org/1999/02/22-rdf-syntax-ns#">
      <rdf:Description rdf:about=""/>
   </rdf:RDF>
</x:xmpmeta>
                                                                                                    
                                                                                                    
                                                                                                    
                                                                                                    
                                                                                                    
                                                                                                    
                                                                                                    
                                                                                                    
                                                                                                    
                                                                                                    
                                                                                                    
                                                                                                    
                                                                                                    
                                                                                                    
                                                                                                    
                                                                                                    
                                                                                                    
                                                                                                    
                                                                                                    
                                                                                                    
                           
<?xpacket end="w"?></metadata>
<style type="text/css">
	.st0{display:none;}
	.st1{display:inline;fill:#DEA126;}
	.st2{display:none;fill:#231F20;}
	.st3{fill:#FFFFFF;}
	.st4{fill:#ED1C24;}
	.st5{fill:none;stroke:#ED1C24;stroke-width:0.116;stroke-linecap:round;}
	.st6{fill:none;stroke:#ED1C24;stroke-width:0.291;stroke-linecap:round;}
	.st7{fill:#0060A7;}
	.st8{fill:none;stroke:#0060A7;stroke-width:0.116;stroke-linecap:round;}
	.st9{fill:none;stroke:#0060A7;stroke-width:0.582;stroke-linecap:round;}
	.st10{fill:#008A4B;}
	.st11{fill:none;stroke:#008A4B;stroke-width:0.291;stroke-linecap:round;}
	.st12{fill:none;stroke:#008A4B;stroke-width:0.582;stroke-linecap:round;}
	.st13{fill:none;stroke:#FFD530;stroke-width:0.233;stroke-linecap:round;}
	.st14{fill:none;stroke:#FFD530;stroke-width:0.291;stroke-linecap:round;}
	.st15{fill:none;stroke:#FFD530;stroke-width:0.175;stroke-linecap:round;}
	.st16{fill:none;stroke:#FFD530;stroke-width:1.164;stroke-linecap:round;}
	.st17{fill:none;stroke:#231F20;stroke-width:0.291;stroke-linecap:round;}
	.st18{fill:none;stroke:#231F20;stroke-width:0.116;stroke-linecap:round;}
	.st19{fill:#FFD530;}
</style>
<g id="logo">
</g>
<g id="Guides" class="st0">
	<path class="st1" d="M247.3,462.8h-8.5l0.1,0.3c0.4,1.2,21.2,64.1,21.4,64.7l0.1,0.2h9.7c0,0,18.3-56.4,18.4-56.8
		c0.2,0,0.4,0,0.6,0c0.1,0.3,18.4,56.8,18.4,56.8l9.7,0l22.1-65.2h-7.9c0,0-18.6,56.4-18.7,56.8c-0.2,0-0.4,0-0.6,0
		c-0.1-0.3-17.9-56.8-17.9-56.8h-9.7c0,0-18.7,56.4-18.8,56.8c-0.2,0-0.4,0-0.6,0c-0.1-0.3-17.8-56.8-17.8-56.8L247.3,462.8"/>
	<path class="st1" d="M-142.9-205h-8.5l0.1,0.3c0.4,1.2,21.2,64.1,21.4,64.7l0.1,0.2h9.7c0,0,18.3-56.4,18.4-56.8c0.2,0,0.4,0,0.6,0
		c0.1,0.3,18.4,56.8,18.4,56.8h9.7l22.1-65.2h-7.9c0,0-18.6,56.4-18.7,56.8c-0.2,0-0.4,0-0.6,0C-78-148.5-95.8-205-95.8-205h-9.7
		c0,0-18.7,56.4-18.8,56.8c-0.2,0-0.4,0-0.6,0c-0.1-0.3-17.8-56.8-17.8-56.8L-142.9-205"/>
	<path class="st1" d="M790.5,171.7v-8.5l-0.3,0.1c-1.2,0.4-64.1,21.2-64.7,21.4l-0.2,0.1v9.7c0,0,56.4,18.3,56.8,18.4
		c0,0.2,0,0.4,0,0.6c-0.3,0.1-56.8,18.4-56.8,18.4l0,9.7l65.2,22.1v-7.9c0,0-56.4-18.6-56.8-18.7c0-0.2,0-0.4,0-0.6
		c0.3-0.1,56.8-17.9,56.8-17.9v-9.7c0,0-56.4-18.7-56.8-18.8c0-0.2,0-0.4,0-0.6c0.3-0.1,56.8-17.8,56.8-17.8L790.5,171.7"/>
	<path class="st1" d="M-225.3,212.3v-8.5l-0.3,0.1c-1.2,0.4-64.1,21.2-64.7,21.4l-0.2,0.1v9.7c0,0,56.4,18.3,56.8,18.4
		c0,0.2,0,0.4,0,0.6c-0.3,0.1-56.8,18.4-56.8,18.4l0,9.7l65.2,22.1v-7.9c0,0-56.4-18.6-56.8-18.7c0-0.2,0-0.4,0-0.6
		c0.3-0.1,56.8-17.9,56.8-17.9v-9.7c0,0-56.4-18.7-56.8-18.8c0-0.2,0-0.4,0-0.6c0.3-0.1,56.8-17.8,56.8-17.8L-225.3,212.3"/>
</g>
<g id="text">
	<g>
		<g>
			<path class="st2" d="M28.1,189.5c-2.9-0.9-5-1.5-8.4-1.5c-2.5,0-5.5,0.9-5.5,3.9c0,5.6,16.3,2,16.3,14.6
				c0,8.1-7.5,11.4-15.1,11.4c-3.6,0-7.2-0.6-10.6-1.5l0.6-7.4c2.9,1.4,6,2.3,9.2,2.3c2.4,0,6.1-0.9,6.1-4.3
				c0-6.8-16.3-2.2-16.3-14.8c0-7.5,6.8-10.8,14.1-10.8c4.4,0,7.3,0.7,10.2,1.3L28.1,189.5"/>
			<polyline class="st3" points="71.6,217 71.6,182.1 81,182.1 81,217 			"/>
			<path class="st3" d="M140,189.5c-2.9-0.9-5-1.5-8.4-1.5c-2.5,0-5.5,0.9-5.5,3.9c0,5.6,16.2,2,16.2,14.6c0,8.1-7.5,11.4-15.1,11.4
				c-3.6,0-7.2-0.6-10.6-1.5l0.6-7.4c2.9,1.4,6,2.3,9.2,2.3c2.4,0,6.1-0.9,6.1-4.3c0-6.8-16.3-2.2-16.3-14.8
				c0-7.5,6.8-10.8,14.1-10.8c4.4,0,7.3,0.7,10.2,1.3L140,189.5"/>
			<polyline class="st3" points="53.4,197.8 66.6,182.1 55.6,182.1 44.4,196.1 44.3,196.1 44.3,163.4 34.9,166.2 34.9,217 44.3,217 
				44.3,200.1 44.4,200.1 56.4,217 68.3,217 53.4,197.8 			"/>
			<polyline class="st3" points="87,166.2 87,217 96.3,217 96.3,163.4 87,166.2 			"/>
			<polyline class="st3" points="101.7,166.2 101.7,166.2 101.7,217 111.1,217 111.1,163.4 101.7,166.2 			"/>
			<path class="st3" d="M81.7,169.2c0-2.9-2.3-5.2-5.2-5.2c-2.9,0-5.2,2.3-5.2,5.2c0,2.9,2.3,5.2,5.2,5.2
				C79.4,174.4,81.7,172.1,81.7,169.2"/>
			<path class="st3" d="M26.8,178.7c-3-1.3-6.3-2-9.6-2c-3.2,0-7.4,1.4-7.4,6.5c0,8.1,20.6,4.7,20.6,20.5c0,10.3-8.1,14.2-17.6,14.2
				c-5.1,0-7.4-0.7-12.1-1.8l0.9-8.5c3.2,1.8,6.9,2.9,10.6,2.9c3.6,0,8.3-1.8,8.3-6.1c0-9-20.6-5.3-20.6-20.8
				c0-10.5,8.1-14.3,16.4-14.3c4,0,7.8,0.5,11.2,1.7L26.8,178.7z"/>
		</g>
		<g>
			<path class="st4" d="M16.7,81.5c0,0,32.4,7.4,49.8,25.2c0,0,16.5,14.1,23.3,42.4c0,0,0.2-2.4-0.1-5.1c0,0,1.1,2.4,1.8,5
				c0,0,0-1.8-0.3-3c0,0,1.9,4.6,2.5,8.4c0,0-2.6-21.7-14.1-41.4c0,0,8.3,3.3,17.8,38.8c0,0-4.2-29.7-16.7-45.8
				c0,0-16.2-26-55.1-37.7c0,0-4.6,2.5-3.7,6.7C22,74.9,21.9,80.1,16.7,81.5"/>
			<path class="st5" d="M94.8,142C81.7,78,27.3,67.3,27.3,67.3"/>
			<path class="st6" d="M27.3,67.3c0,0,53.7,16.1,65.4,61.9"/>
			<path class="st7" d="M46.7,10.6c-4.7,1.7-5.1,7.3-6.4,14.4c0,0,18.2,5.3,39.4,39.3c0,0,21.5,42.5,20.6,87.1
				c0,0,0.6-16.5,0.6-19.5c0,0,0.9,8.4,0.6,11c0,0,0.6-3.2,0.6-6.2c0,0,1.1,4.3,1.4,15c0,0,1.8-7.5,1.5-28.6c0,0,0.1-14.8-3.8-28.9
				c0,0-5.5-18.6-6.5-21.6c0,0,7.7,19.2,10.6,32.2c0,0,5.6,20.3,3.7,48.8c0,0,2.7-5,3.8-24.8c0,0,0.4-17.4-3.9-32.8l-3.9-13.7
				c0,0,4.6,11.5,6.9,24.3c0,0,4,19.1,0.4,38.3c0,0-1,9.3-2.2,12.7c0,0,2.1-4,3.9-20.8c0,0,1.9-12.1-1.1-28.4c0,0-1.9-10.5-4.1-16.9
				c0,0-9.1-32.9-22-54c0,0-12.2-21.7-30-36.1C56.8,1.4,59,6,46.7,10.6"/>
			<path class="st8" d="M111.8,104.5c0,0-15.7-82.4-54.3-104.5"/>
			<path class="st9" d="M57.5,0c0,0,37.1,23.5,55.3,104.7c0,0,3.7,15.2,1.6,33.1"/>
			<path class="st10" d="M96.6,33.1c0,0,18,9.5,26,38.3c0,0,11.8,41.3-8.7,78.8c0,0,4.1-6.4,5.6-11c0,0-1.8,7.7-2.7,8.9
				c0,0,1.6-2.9,2.8-4.5c0,0-0.5,3-5.1,10.9c0,0,14.3-14.6,18.7-45.7c0,0,1.4,10.3-2.9,23.9c0,0-4.3,15-13.2,25.3
				c0,0,12.9-8,20.9-41.9c0,0,3.4-14.5,3-28c0,0,0.5-35.3-18.9-59.3c0,0-5-6.5-10.6-10c0,0,0.1,3.7-7,7.1
				C104.7,25.9,100.8,27.7,96.6,33.1"/>
			<path class="st11" d="M136,123.7c0,0,21.8-77.6-24-105.9"/>
			<path class="st12" d="M112,17.8c0,0,34.4,19.1,29.5,86.4c0,0-1.5,20.2-14.1,41.9"/>
			<path class="st13" d="M147.3,112.3c0,0,22.2,24.8-28,56.4"/>
			<path class="st14" d="M83.4,64.9c0,0,68.2,10.7,75,53"/>
			<path class="st15" d="M83.4,64.9c0,0,113.6,22.8,64.5,92.9"/>
			<path class="st16" d="M142.9,129.3c0,0,6.4-27.9-93.6-38.8"/>
			<path class="st3" d="M31.7,118.8c0,0,10.1,14.3,23.3,22c0,0,12.6,8.1,28.1,14.8c0,0-1-0.5-2.4-2.2c0,0,1.7,0.7,2.7,1.1
				c0,0-0.6-0.2-1.3-1.2c0,0,4.4,1.8,5.3,1.9c0,0-2.2-1.1-4.1-2.1c0,0-11.9-5.5-20.9-13.6c0,0,5.1,3.6,10.2,5.9
				c0,0,8.8,4.4,17.4,6.9c0,0-3-1-5.8-2.8c0,0-16.2-8.9-16.9-10.2c0,0,6.3,3.6,7,3.9c0,0,1.6,0.9,2,1.1c0,0,0-0.4-1.3-0.9
				c0,0-7.3-4.4-9.1-5.6c0,0-12.7-7.5-22.4-22.6c0,0-3.8,0.1-5.9,2.2C37.8,117.5,36.7,118.9,31.7,118.8"/>
			<path class="st17" d="M31,118.9c0,0,8.1,17.4,42.4,31.8"/>
			<path class="st18" d="M31,118.9c0,0,14.3,22.9,52.2,36.9"/>
			<path class="st19" d="M52.1,88.4c0,0,47.1,7,64.1,15c0,0,42.2,14.6,19.4,41.4c0,0-4.5,5.9-11.1,10c0,0,1.2-0.2,3.7-2.1
				c0,0-2.1,3.2-8.6,7.1c0,0,5.7-1.7,15.4-9.2c0,0,12.6-9.4,14.1-23.3c0,0,1.3-7-1.3-14.2c0,0,4.6,4.2,4.6,14.2
				c0,0,1.5,21.6-29.3,40.6c0,0,5.8-1.9,14.5-8c0,0,29.3-18.8,17.1-49.3c0,0,7.4,11.6,1.3,28.4c0,0-3.3,11.4-18.3,24.2
				c0,0,7-3.2,13.3-13.1c0,0,7.9-10.7,8-22.7c0,0,1.7-17.5-13.2-32.3c0,0-15.2-15.7-47.5-25.2c0,0-8.6-2.7-15.9-3.7
				c0,0-2.8,7-7,10.9C71.4,81.1,62,84.9,52.1,88.4"/>
		</g>
		<g>
			<path class="st3" d="M34.2,230.1c-3-1.5-7.2-2-10.5-2c-12.2,0-19.1,8.6-19.1,20.3c0,11.8,6.7,20.3,19.1,20.3
				c3.1,0,7.8-0.4,10.5-2l0.3,4c-2.6,1.5-7.8,2-10.8,2C8.9,272.7,0,262.9,0,248.4c0-14.3,9.2-24.3,23.7-24.3c2.8,0,8.3,0.5,10.8,1.8
				L34.2,230.1z"/>
			<path class="st3" d="M62.7,266.3h-0.1c-1.9,4.1-6.7,6.3-10.9,6.3c-9.8,0-11.3-6.6-11.3-9.7c0-11.5,12.3-12.1,21.1-12.1h0.8v-1.8
				c0-5.9-2.1-8.8-7.8-8.8c-3.6,0-6.9,0.8-10.1,2.8v-4.1c2.6-1.3,7.1-2.4,10.1-2.4c8.5,0,12.1,3.8,12.1,12.8v15.1
				c0,2.8,0,4.8,0.3,7.2h-4.2V266.3z M62.3,254.6h-1.2c-7.3,0-16.1,0.7-16.1,8.3c0,4.5,3.2,6.2,7.1,6.2c10,0,10.2-8.7,10.2-12.4
				V254.6z"/>
			<path class="st3" d="M73.3,245.6c0-2.6,0-5.3-0.3-8.1h4.1v6.1h0.1c1.4-3.1,4-6.9,11.1-6.9c8.5,0,11.7,5.7,11.7,13.2v21.9h-4.2
				V251c0-6.5-2.3-10.6-8.1-10.6c-7.7,0-10.2,6.8-10.2,12.5v19h-4.2V245.6z"/>
			<path class="st3" d="M127.1,266.3H127c-1.9,4.1-6.7,6.3-10.9,6.3c-9.8,0-11.3-6.6-11.3-9.7c0-11.5,12.3-12.1,21.1-12.1h0.8v-1.8
				c0-5.9-2.1-8.8-7.8-8.8c-3.6,0-6.9,0.8-10.1,2.8v-4.1c2.6-1.3,7.1-2.4,10.1-2.4c8.5,0,12.1,3.8,12.1,12.8v15.1
				c0,2.8,0,4.8,0.3,7.2h-4.2V266.3z M126.7,254.6h-1.2c-7.3,0-16.1,0.7-16.1,8.3c0,4.5,3.2,6.2,7.1,6.2c10,0,10.2-8.7,10.2-12.4
				V254.6z"/>
			<path class="st3" d="M164.9,271.9h-4.2v-5.5h-0.1c-2.3,4.4-5.8,6.3-10.7,6.3c-9.4,0-14.1-7.8-14.1-18c0-10.4,4-18,14.1-18
				c6.7,0,10.1,4.9,10.7,6.6h0.1v-21.9h4.2V271.9z M150.5,269c7.5,0,10.2-8.1,10.2-14.3s-2.6-14.3-10.2-14.3
				c-8.1,0-10.2,7.7-10.2,14.3C140.3,261.4,142.4,269,150.5,269z"/>
			<path class="st3" d="M191.5,266.3h-0.1c-1.9,4.1-6.7,6.3-10.9,6.3c-9.8,0-11.3-6.6-11.3-9.7c0-11.5,12.3-12.1,21.1-12.1h0.8v-1.8
				c0-5.9-2.1-8.8-7.8-8.8c-3.6,0-6.9,0.8-10.1,2.8v-4.1c2.6-1.3,7.1-2.4,10.1-2.4c8.5,0,12.1,3.8,12.1,12.8v15.1
				c0,2.8,0,4.8,0.3,7.2h-4.2V266.3z M191.1,254.6h-1.2c-7.3,0-16.1,0.7-16.1,8.3c0,4.5,3.2,6.2,7.1,6.2c10,0,10.2-8.7,10.2-12.4
				V254.6z"/>
		</g>
		<g>
			<path class="st3" d="M182.9,175.4c-3-1.5-7.2-2-10.5-2c-12.2,0-19.1,8.6-19.1,20.3c0,11.8,6.7,20.3,19.1,20.3
				c3.1,0,7.8-0.4,10.5-2l0.3,4c-2.6,1.5-7.8,2-10.8,2c-14.8,0-23.7-9.8-23.7-24.3c0-14.3,9.2-24.3,23.7-24.3
				c2.8,0,8.3,0.5,10.8,1.8L182.9,175.4z"/>
			<path class="st3" d="M203.4,182c11.1,0,16,8.6,16,18c0,9.4-4.9,18-16,18s-16-8.6-16-18C187.4,190.6,192.3,182,203.4,182z
				 M203.4,214.3c7.4,0,11.4-6.4,11.4-14.3s-4-14.3-11.4-14.3c-7.4,0-11.4,6.4-11.4,14.3S196,214.3,203.4,214.3z"/>
			<path class="st3" d="M265.6,217.2v-22.8c0-4.8-1.8-8.7-7.3-8.7c-4.6,0-9.2,4-9.2,12.5v19h-4.2v-22.8c0-4.8-1.8-8.7-7.3-8.7
				c-4.6,0-9.2,4-9.2,12.5v19h-4.2v-26.3c0-2.6,0-5.3-0.3-8.1h4.1v5.8l0.1,0.1c1.3-2.4,3.4-6.7,10.7-6.7c3,0,8,1.3,9.1,7.3h0.1
				c1.5-4,5.6-7.3,11-7.3c6.9,0,10.8,4.8,10.8,11.5v23.6H265.6z"/>
			<path class="st3" d="M276.4,182.8h4.2l-0.3,6.3h0.1c1.1-1.9,3.7-7.1,11-7.1c10.1,0,14.1,7.5,14.1,18c0,10.2-4.7,18-14.1,18
				c-5.4,0-8.6-2.2-10.7-6.7h-0.1v20h-4.2V182.8z M290.8,185.7c-7.5,0-10.2,8.1-10.2,14.3c0,6.3,2.6,14.3,10.2,14.3
				c8.1,0,10.2-7.7,10.2-14.3C301,193.3,298.9,185.7,290.8,185.7z"/>
			<path class="st3" d="M333.9,216.1c-3,1.2-6.8,1.9-10,1.9c-11.4,0-15.6-7.7-15.6-18c0-10.5,5.8-18,14.5-18c9.7,0,13.7,7.8,13.7,17
				v2.2H313c0,7.3,3.9,13.1,11.3,13.1c3.1,0,7.6-1.3,9.6-2.6V216.1z M331.8,197.6c0-6-2.4-11.9-8.8-11.9c-6.3,0-10.1,6.3-10.1,11.9
				H331.8z M324.8,169.6h5.3l-8.5,9.7h-3.1L324.8,169.6z"/>
			<path class="st3" d="M356,186.5h-7.8v22.2c0,3.1,1.1,5.7,4.6,5.7c1.6,0,2.7-0.3,3.9-0.8l0.3,3.5c-1,0.4-3.1,0.9-5.2,0.9
				c-7.5,0-7.8-5.2-7.8-11.4v-20.1h-6.7v-3.6h6.7v-8.3l4.2-1.5v9.8h7.8V186.5z"/>
			<path class="st3" d="M383.3,216.1c-3,1.2-6.8,1.9-10,1.9c-11.4,0-15.6-7.7-15.6-18c0-10.5,5.8-18,14.5-18c9.7,0,13.7,7.8,13.7,17
				v2.2h-23.5c0,7.3,3.9,13.1,11.3,13.1c3.1,0,7.6-1.3,9.6-2.6V216.1z M381.2,197.6c0-6-2.4-11.9-8.8-11.9
				c-6.3,0-10.1,6.3-10.1,11.9H381.2z"/>
			<path class="st3" d="M390.5,190.9c0-2.6,0-5.3-0.3-8.1h4.1v6.1h0.1c1.4-3.1,4-6.9,11.1-6.9c8.5,0,11.7,5.7,11.7,13.2v21.9h-4.2
				v-20.9c0-6.5-2.3-10.6-8.1-10.6c-7.7,0-10.2,6.8-10.2,12.5v19h-4.2V190.9z"/>
			<path class="st3" d="M446.9,187.4c-2.3-1-5-1.8-7.3-1.8c-8.3,0-12.9,6-12.9,14.3c0,7.8,4.7,14.3,12.5,14.3c2.7,0,5.2-0.6,7.7-1.5
				l0.4,4c-2.9,1-5.6,1.2-8.8,1.2c-11,0-16.4-8.4-16.4-18c0-10.6,6.8-18,17-18c4.1,0,7.1,0.9,8.3,1.3L446.9,187.4z"/>
			<path class="st3" d="M474.1,216.1c-3,1.2-6.8,1.9-10,1.9c-11.4,0-15.6-7.7-15.6-18c0-10.5,5.8-18,14.5-18c9.7,0,13.7,7.8,13.7,17
				v2.2h-23.5c0,7.3,3.9,13.1,11.3,13.1c3.1,0,7.6-1.3,9.6-2.6V216.1z M472.1,197.6c0-6-2.4-11.9-8.8-11.9
				c-6.3,0-10.1,6.3-10.1,11.9H472.1z"/>
			<path class="st3" d="M478.8,212.2c2.6,1.3,5.7,2.2,9,2.2c4,0,7.6-2.2,7.6-6.1c0-8.1-16.5-6.9-16.5-16.8c0-6.8,5.5-9.4,11.2-9.4
				c1.8,0,5.5,0.4,8.5,1.5l-0.4,3.7c-2.2-1-5.3-1.6-7.6-1.6c-4.4,0-7.4,1.3-7.4,5.7c0,6.4,16.9,5.6,16.9,16.8c0,7.3-6.8,9.8-12,9.8
				c-3.3,0-6.6-0.4-9.6-1.6L478.8,212.2z"/>
		</g>
		<g>
			<path class="st3" d="M2.5,286.3h6.4c4.9,0,8.2,1.6,8.2,5.9c0,3.2-1.9,4.8-4.8,5.6v0.1c3.2,0.3,5.5,2.4,5.5,5.7c0,5-4.2,6.3-9,6.3
				H2.5V286.3z M5.9,296.3h1.9c3.3,0,6-0.3,6-3.8c0-2.8-2.4-3.5-4.3-3.5H5.9V296.3z M5.9,307h2.5c3,0,5.8-0.6,5.8-3.8
				c0-3.6-3.2-4.1-6.1-4.1H5.9V307z"/>
			<path class="st3" d="M21.1,292.6h3v2.7h0.1c0.8-1.8,2.7-3.1,4.5-3.1c0.9,0,1.4,0.1,2.1,0.2v2.8c-0.6-0.2-1.2-0.3-1.8-0.3
				c-2.8,0-4.7,2.7-4.7,7v7.8h-3.2V292.6z"/>
			<path class="st3" d="M36.2,288.8h-3.6v-3.6h3.6V288.8z M32.8,292.6H36v17.2h-3.2V292.6z"/>
			<path class="st3" d="M49,295.2h-4.5v9.4c0,2,1.2,3.1,2.7,3.1c1,0,1.7-0.3,2.2-0.6v2.7c-0.7,0.2-1.7,0.5-2.7,0.5
				c-3.3,0-5.3-1.5-5.3-5v-10h-3.9v-2.6h3.9v-4l3.2-1v5H49V295.2z"/>
			<path class="st3" d="M54.9,288.8h-3.6v-3.6h3.6V288.8z M51.5,292.6h3.2v17.2h-3.2V292.6z"/>
			<path class="st3" d="M57.4,306.4c1.2,0.8,3,1.2,3.9,1.2c1.4,0,3.2-0.6,3.2-2.5c0-3.1-7.4-2.9-7.4-7.7c0-3.6,2.7-5.3,6.1-5.3
				c1.5,0,2.7,0.3,3.9,0.7l-0.3,2.8c-0.7-0.4-2.6-0.9-3.3-0.9c-1.6,0-3,0.7-3,2.1c0,3.5,7.4,2.5,7.4,8c0,3.7-2.9,5.4-6,5.4
				c-1.6,0-3.3-0.2-4.7-0.9L57.4,306.4z"/>
			<path class="st3" d="M69.9,284.5H73v10.5h0.1c1.1-1.8,3.1-2.9,5.5-2.9c4.4,0,6.4,2.8,6.4,7.4v10.2h-3.2v-8.9c0-4-0.9-6-3.6-6.1
				c-3.6,0-5.2,2.9-5.2,7.1v7.9h-3.2V284.5z"/>
			<path class="st3" d="M112.6,290.1c-1.5-0.9-3.1-1.3-4.8-1.3c-5.4,0-9,3.9-9,9.2c0,5.5,4,9.2,8.9,9.2c1.7,0,3.9-0.4,5.1-1.1
				l0.2,3.3c-1.8,0.7-4,0.8-5.4,0.8c-7.4,0-12.4-4.8-12.4-12.3c0-7.2,5.3-12.1,12.4-12.1c1.8,0,3.6,0.3,5.3,1L112.6,290.1z"/>
			<path class="st3" d="M122.4,292.2c5.2,0,8.7,3.8,8.7,9c0,4.9-3.6,9-8.7,9c-5.2,0-8.8-4.1-8.8-9
				C113.7,296,117.2,292.2,122.4,292.2z M122.4,307.6c3.7,0,5.4-3.4,5.4-6.4c0-3.3-2-6.4-5.4-6.4c-3.4,0-5.4,3.2-5.4,6.4
				C117,304.2,118.7,307.6,122.4,307.6z"/>
			<path class="st3" d="M133.9,284.5h3.2v25.2h-3.2V284.5z"/>
			<path class="st3" d="M156.2,309.8h-3.1V307h-0.1c-0.9,2-3.2,3.1-5.6,3.1c-4.4,0-6.4-2.8-6.4-7.4v-10.2h3.2v8.9c0,4,0.9,6,3.6,6.1
				c3.6,0,5.2-2.9,5.2-7.1v-7.9h3.2V309.8z"/>
			<path class="st3" d="M159.7,292.6h3v2.5h0.1c1.2-2,2.9-2.9,5.5-2.9c2,0,4,1,4.9,3.3c1.2-2.5,3.8-3.3,5.3-3.3c4.4,0,6,2.8,6,6.6
				v11h-3.2v-10.2c0-2.1-0.5-4.8-3.1-4.8c-3.2,0-4.5,3.2-4.5,6.4v8.7h-3.2v-10.2c0-2.1-0.5-4.8-3.1-4.8c-3.2,0-4.5,3.2-4.5,6.4v8.7
				h-3.2V292.6z"/>
			<path class="st3" d="M187.8,284.5h3.2V295h0.1c1-1.6,2.7-2.8,5.7-2.8c5,0,7.4,4.1,7.4,8.7c0,4.7-2.2,9.3-7.4,9.3
				c-3.1,0-5-1.5-5.9-2.8h-0.1v2.4h-3V284.5z M196.1,294.8c-3.4,0-5.1,3.3-5.1,6.5c0,2.9,1.5,6.4,5,6.4c3.4,0,4.8-3.8,4.7-6.5
				C200.9,298,199.5,294.8,196.1,294.8z"/>
			<path class="st3" d="M210.3,288.8h-3.6v-3.6h3.6V288.8z M207,292.6h3.2v17.2H207V292.6z"/>
			<path class="st3" d="M214.9,293.8c1.6-0.9,3.5-1.6,5.7-1.6c4.9,0,6.9,2.4,6.9,7.1v7.1c0,2,0.1,2.9,0.1,3.4h-3v-2.2h-0.1
				c-0.7,1-2.4,2.6-5.3,2.6c-3.7,0-6.3-1.6-6.3-5.4c0-4.3,4.7-5.7,8-5.7c1.2,0,2.1,0,3.4,0.1c0-3-1.1-4.5-4.2-4.5
				c-1.8,0-3.7,0.7-5,1.8L214.9,293.8z M224.3,301.6c-0.7,0-1.3-0.1-2-0.1c-1.7,0-6,0.3-6,3.3c0,1.8,1.8,2.8,3.2,2.8
				c3.1,0,4.8-2,4.8-4.5V301.6z"/>
		</g>
	</g>
</g>
</svg>
