<?xml version="1.0" encoding="utf-8"?>
<!-- Generator: Adobe Illustrator 19.2.1, SVG Export Plug-In . SVG Version: 6.00 Build 0)  -->
<svg version="1.1" id="Layer_1" xmlns="http://www.w3.org/2000/svg" xmlns:xlink="http://www.w3.org/1999/xlink" x="0px" y="0px"
	 viewBox="0 0 360 65.9" style="enable-background:new 0 0 360 65.9;" xml:space="preserve">
<metadata><?xpacket begin="﻿" id="W5M0MpCehiHzreSzNTczkc9d"?>
<x:xmpmeta xmlns:x="adobe:ns:meta/" x:xmptk="Adobe XMP Core 5.6-c111 79.158366, 2015/09/25-01:12:00        ">
   <rdf:RDF xmlns:rdf="http://www.w3.org/1999/02/22-rdf-syntax-ns#">
      <rdf:Description rdf:about=""/>
   </rdf:RDF>
</x:xmpmeta>
                                                                                                    
                                                                                                    
                                                                                                    
                                                                                                    
                                                                                                    
                                                                                                    
                                                                                                    
                                                                                                    
                                                                                                    
                                                                                                    
                                                                                                    
                                                                                                    
                                                                                                    
                                                                                                    
                                                                                                    
                                                                                                    
                                                                                                    
                                                                                                    
                                                                                                    
                                                                                                    
                           
<?xpacket end="w"?></metadata>
<style type="text/css">
	.st0{fill:#FFFFFF;}
</style>
<g>
	<g>
		<path class="st0" d="M34.3,19.7c-0.1,0.1-1,1-1.4,2.3c-0.6,1.9-0.2,3.9,1.4,5.4l0.1,0.1c0,0.1,0.1,0.1,0.1,0.1l12.2,12.2l2.8,16.3
			v8.3c0,0.8,0.6,1.5,1.5,1.5h19.7c0.8,0,1.5-0.6,1.5-1.5v-7.6c2.7-1.7,11.3-7.4,11.3-14.9V28c0-0.8-0.6-1.5-1.5-1.5
			c-1,0-2.1,0.1-3.1,0.3c-0.3-1.2-0.9-2.2-1.6-2.7l-5.6-5.6c-0.3-0.3-0.6-0.5-1-0.5h-9.7V5.5c0-2.2-1.5-5.5-5.5-5.5
			s-5.5,3.3-5.5,5.5v5L47.4,6c0-0.1-0.1-0.1-0.1-0.2c0-0.1-0.1-0.2-0.1-0.2c-0.3-0.5-0.6-0.8-0.9-1.2l0,0l0,0
			c-2.8-2.8-6.1-1.6-7.7,0c-0.9,1-2.3,3.5-1.1,6.1l0,0l3.9,8.7C38.7,17.1,35.7,18.3,34.3,19.7z M75.2,26.2
			C75.2,26.2,75.3,26.2,75.2,26.2c0.2,0.2,1.1,1,0.5,2.2c-0.3,0.3-0.6,0.6-0.7,0.9c-0.6,0.6-1.2,0.8-1.8,0.8c-0.7,0-1.4-0.4-1.5-0.6
			l-2.8-2.8c-0.3-0.3-0.6-0.5-1-0.5h-5.6c-0.6,0-1.2,0.4-1.4,1l-2.8,8.4c-0.2,0.6,0,1.1,0.4,1.6l8.4,8.4c0.5,0.5,1.2,0.6,1.8,0.2
			l7.1-4.2c0.5-0.3,0.7-0.7,0.7-1.3v-3.9c0-2.6,0.4-4.4,0.9-5.5c0.3-0.3,0.6-0.6,0.7-0.9c0.6-0.5,1.4-0.7,2.4-0.8V42
			c0,7-10.4,12.7-10.5,12.7c-0.5,0.3-0.7,0.7-0.7,1.3v7h-17v-7c0-0.1,0-0.2,0-0.3l-2.8-16.4l3.1-7.3l0,0l4.8-11.1H70L75.2,26.2z
			 M73.7,33.1c-0.2,1-0.3,2.2-0.3,3.6v3.1l-5.3,3.1l-7-7l2.2-6.6h3.9l2.4,2.4l0.1,0.1c0.2,0.1,1.5,1.3,3.5,1.3
			C73.3,33.2,73.5,33.1,73.7,33.1z M53.2,4.1c0.4-0.8,1.1-1.2,2.2-1.2c1.4,0,1.8,0.6,2.1,1.1c0.4,0.7,0.4,1.5,0.4,1.5v12.6h-1.4
			c-0.6,0-1.1,0.4-1.4,0.9l-2.3,5.4v-8.1l0,0V5.5C53,5.4,53,4.8,53.2,4.1z M40.8,6.5c0.1-0.1,0.6-0.6,1.3-0.7
			c0.6-0.2,1.3-0.3,2.3,0.7c0.2,0.2,0.4,0.5,0.6,0.6c0,0,0,0.1,0.1,0.1c0,0.1,0.1,0.1,0.1,0.2l5,9.3v14.6l0,0l-10-22.1l0,0l0,0
			C39.5,7.9,40.7,6.6,40.8,6.5z M40,21.8L40,21.8c0.1,0.1,0.1,0.1,0.2,0.2l4.6,4.7l3.7,8.3l-0.7,1.7l-11-11l-0.1-0.1
			c0-0.1-0.1-0.1-0.1-0.1c-1-1-0.9-1.7-0.7-2.3c0.2-0.6,0.6-1.2,0.7-1.3c0.1-0.1,0.6-0.6,1.3-0.7C38.1,20.9,38.9,20.8,40,21.8z"/>
	</g>
	<g>
		<path class="st0" d="M31.1,43.8c0,2.8-0.7,5.2-2.1,7.3s-3.4,3.8-6,5s-5.7,1.8-9.3,1.8c-3,0-5.4-0.2-7.4-0.6S2.2,56.1,0,55.1V44.4
			c2.3,1.2,4.7,2.1,7.1,2.7s4.7,1,6.8,1c1.8,0,3.1-0.3,3.9-0.9c0.8-0.6,1.2-1.4,1.2-2.4c0-0.6-0.2-1.1-0.5-1.6
			c-0.3-0.5-0.9-0.9-1.6-1.4s-2.7-1.4-5.9-2.9c-2.9-1.3-5.1-2.6-6.5-3.8S2,32.5,1.4,30.9c-0.7-1.6-1-3.5-1-5.7
			c0-4.1,1.5-7.3,4.5-9.6s7.1-3.4,12.3-3.4c4.6,0,9.3,1.1,14.1,3.2l-3.7,9.3c-4.1-1.9-7.7-2.9-10.7-2.9c-1.6,0-2.7,0.3-3.4,0.8
			c-0.7,0.5-1.1,1.2-1.1,2c0,0.9,0.5,1.6,1.4,2.3c0.9,0.7,3.3,1.9,7.3,3.8c3.8,1.7,6.5,3.6,8,5.5C30.3,38.3,31.1,40.8,31.1,43.8z"/>
	</g>
	<g>
		<path class="st0" d="M115.5,41.1v16.2h-12V12.9h14.5c12.1,0,18.1,4.4,18.1,13.1c0,5.1-2.5,9.1-7.5,11.9l12.9,19.3H128l-9.4-16.2
			H115.5z M115.5,32.1h2.2c4.2,0,6.3-1.9,6.3-5.6c0-3.1-2.1-4.6-6.2-4.6h-2.4V32.1z"/>
		<path class="st0" d="M167.8,57.2l-2.3-4.6h-0.2c-1.6,2-3.2,3.3-4.9,4.1c-1.7,0.7-3.8,1.1-6.4,1.1c-3.2,0-5.8-1-7.7-2.9
			s-2.8-4.7-2.8-8.2c0-3.7,1.3-6.4,3.8-8.2c2.6-1.8,6.2-2.8,11.1-3l5.7-0.2v-0.5c0-2.8-1.4-4.3-4.2-4.3c-2.5,0-5.7,0.9-9.6,2.6
			l-3.4-7.8c4-2.1,9.1-3.1,15.2-3.1c4.4,0,7.8,1.1,10.2,3.3c2.4,2.2,3.6,5.2,3.6,9.2v22.6H167.8z M159,49.5c1.4,0,2.7-0.5,3.7-1.4
			s1.5-2.1,1.5-3.6v-2.7l-2.7,0.1c-3.9,0.1-5.9,1.6-5.9,4.3C155.6,48.4,156.8,49.5,159,49.5z"/>
		<path class="st0" d="M206,57.2V38.5c0-2.3-0.3-4-1-5.2c-0.7-1.2-1.7-1.7-3.2-1.7c-2,0-3.5,0.8-4.3,2.4c-0.9,1.6-1.3,4.3-1.3,8.2
			v15.1h-11.9V22.8h9l1.5,4.3h0.7c1-1.6,2.4-2.8,4.2-3.6c1.8-0.8,3.9-1.2,6.2-1.2c3.8,0,6.8,1.1,8.9,3.3c2.1,2.2,3.2,5.3,3.2,9.3
			v22.4H206z"/>
		<path class="st0" d="M236.9,57.9c-2.4,0-4.6-0.7-6.4-2.1c-1.8-1.4-3.2-3.5-4.3-6.2c-1-2.7-1.5-5.9-1.5-9.5c0-5.6,1.1-10,3.4-13.1
			c2.2-3.2,5.3-4.7,9.3-4.7c1.9,0,3.6,0.4,5.1,1.2c1.4,0.8,2.8,2.1,4,3.9h0.2c-0.4-2.7-0.6-5.4-0.6-8.1V10h12v47.2h-9l-2.6-4.3H246
			C243.9,56.2,240.9,57.9,236.9,57.9z M241.7,48.5c1.9,0,3.2-0.6,4-1.8s1.2-3,1.3-5.5v-0.9c0-3-0.4-5.2-1.3-6.5s-2.2-1.9-4.1-1.9
			c-1.6,0-2.8,0.7-3.6,2.2c-0.9,1.5-1.3,3.6-1.3,6.3c0,2.7,0.4,4.7,1.3,6.1C238.8,47.8,240.1,48.5,241.7,48.5z"/>
		<path class="st0" d="M299,40c0,5.6-1.5,10-4.5,13.2c-3,3.1-7.3,4.7-12.7,4.7c-5.2,0-9.4-1.6-12.5-4.8s-4.6-7.6-4.6-13.1
			c0-5.6,1.5-10,4.5-13.1c3-3.1,7.3-4.7,12.7-4.7c3.4,0,6.4,0.7,9,2.2c2.6,1.4,4.6,3.5,6,6.2C298.3,33.3,299,36.4,299,40z M276.7,40
			c0,3,0.4,5.2,1.2,6.8s2.1,2.3,4,2.3c1.8,0,3.1-0.8,3.9-2.3c0.8-1.5,1.1-3.8,1.1-6.8c0-2.9-0.4-5.2-1.2-6.6
			c-0.8-1.5-2.1-2.2-3.9-2.2c-1.8,0-3.1,0.7-3.9,2.2C277.1,34.8,276.7,37,276.7,40z"/>
		<path class="st0" d="M348.1,57.2V38.5c0-2.3-0.3-4.1-1-5.2c-0.6-1.2-1.6-1.7-3-1.7c-1.8,0-3.2,0.8-4,2.3c-0.9,1.6-1.3,4-1.3,7.3
			v16H327V38.5c0-2.3-0.3-4.1-0.9-5.2c-0.6-1.2-1.6-1.7-2.9-1.7c-1.9,0-3.2,0.8-4.1,2.5s-1.3,4.4-1.3,8.1v15.1h-11.9V22.8h9l1.5,4.3
			h0.7c0.9-1.6,2.2-2.8,4-3.6s3.7-1.2,5.9-1.2c5,0,8.4,1.5,10.4,4.5h0.9c1-1.4,2.3-2.5,4.1-3.3c1.7-0.8,3.6-1.2,5.7-1.2
			c4.1,0,7.1,1,9,3.1s2.9,5.3,2.9,9.5v22.4H348.1z"/>
	</g>
</g>
</svg>
